# Blender 3.5.1
# www.blender.org
mtllib grass.mtl
o grass
v 0.310054 0.000000 -0.000000
v 0.254188 3.425011 -0.000000
v -0.310054 0.000000 0.000000
v -0.189111 6.095955 -0.000000
v 0.189111 6.095955 -0.000000
v -0.254188 3.425011 -0.000000
v -0.000000 8.287697 -0.000000
vn -0.0000 -0.0000 1.0000
vt 0.000000 0.000000
vt 0.000000 0.000000
vt 0.000000 0.000000
vt 0.000000 0.000000
vt 0.000000 0.000000
vt 0.000000 0.000000
vt 0.000000 0.000000
s 0
f 2/2/1 4/4/1 6/6/1
f 1/1/1 6/6/1 3/3/1
f 4/4/1 5/5/1 7/7/1
f 2/2/1 5/5/1 4/4/1
f 1/1/1 2/2/1 6/6/1
